# xmcd
#
# Track frame offsets: 
#        150
#        18066
#        34138
#        48323
#        62746
#        77065
#        89670
#        101624
#        115523
#        128467
#        142330
#        154271
#        168614
#        179016
#        193462
#        206628
#        218642
#
# Disc length: 3077 seconds
#
# Revision: 6
# Processed by: cddbd v1.5.2PL0 Copyright (c) Steve Scherf et al.
# Submitted via: ExactAudioCopy v0.95b3
#
DISCID=f50c0311
DTITLE=John Lee Hooker - The Ultimate Jazz Archive
DYEAR=2005
DGENRE=Blues
TTITLE0=Wednesday Evening Blues
TTITLE1=My First Wife Left Me
TTITLE2=Boogie Chillen
TTITLE3=Sally Mae
TTITLE4=Henry's Swing Club
TTITLE5=Hobo Blues
TTITLE6=Crawling King Snake
TTITLE7=Alberta
TTITLE8=Do My Baby Think of Me
TTITLE9=The long Years ago
TTITLE10=Strike Blues
TTITLE11=Grinder Man
TTITLE12=Walkin' This Highway
TTITLE13=Four Women in my Life
TTITLE14=I Need Lovin'
TTITLE15=Find Me a Woman
TTITLE16=I'm In The Mood
EXTD=keine Angaben zu den Daten der Aufnahmen verfügbar YEAR: 2005
EXTT0=
EXTT1=
EXTT2=
EXTT3=
EXTT4=
EXTT5=
EXTT6=
EXTT7=
EXTT8=
EXTT9=
EXTT10=
EXTT11=
EXTT12=
EXTT13=
EXTT14=
EXTT15=
EXTT16=
PLAYORDER=
